<mxfile host="app.diagrams.net" modified="2024-04-02T10:12:06.189Z" agent="Mozilla/5.0 (Macintosh; Intel Mac OS X 10_15_7) AppleWebKit/537.36 (KHTML, like Gecko) Chrome/120.0.0.0 Safari/537.36" version="24.2.1" etag="ESkBnitFSIGT_K1yFzzK" type="github">
  <diagram name="페이지-1" id="88zS7s-DLYsq6E73FJFv">
    <mxGraphModel>
      <root>
        <mxCell id="0" />
        <mxCell id="1" parent="0" />
      </root>
    </mxGraphModel>
  </diagram>
</mxfile>
